# xmcd
#
# Track frame offsets: 
#        150
#        14434
#        28909
#        43203
#        56939
#        70553
#        83920
#        98267
#        110626
#        124350
#        138998
#        153576
#        166022
#        179765
#        191693
#        205091
#        219473
#        233090
#        247189
#        261772
#        276317
#        289415
#        304540
#        318521
#
# Disc length: 4413 seconds
#
# Revision: 1
# Processed by: cddbd v1.5.2PL0 Copyright (c) Steve Scherf et al.
# Submitted via: ExactAudioCopy v0.99pb4
#
DISCID=6b113b18
DTITLE=John Lee Hooker - BD Blues [CD1] 1948-1951
DYEAR=2006
DGENRE=Blues
TTITLE0=Boogie chillen
TTITLE1=Sally Mae
TTITLE2=Who's been jiving you
TTITLE3=Hobo blues
TTITLE4=Crawling king shake
TTITLE5=Momma Poppa boogie
TTITLE6=Whistlin' and moanin' blues
TTITLE7=Burnin' hell
TTITLE8=Black cat blues
TTITLE9=Don't go baby
TTITLE10=Forgive me
TTITLE11=House rent boogie
TTITLE12=Wednesday evening
TTITLE13=Let your daddy ride
TTITLE14=Let's talk it over
TTITLE15=Notoriety woman
TTITLE16=Never satisfied
TTITLE17=Don't you remember
TTITLE18=(Four) Women in my life
TTITLE19=Whistle don't blown
TTITLE20=Looking for romance
TTITLE21=Just me and my telephone
TTITLE22=Louise
TTITLE23=Leave my wife alone
EXTD=
EXTT0=
EXTT1=
EXTT2=
EXTT3=
EXTT4=
EXTT5=
EXTT6=
EXTT7=
EXTT8=
EXTT9=
EXTT10=
EXTT11=
EXTT12=
EXTT13=
EXTT14=
EXTT15=
EXTT16=
EXTT17=
EXTT18=
EXTT19=
EXTT20=
EXTT21=
EXTT22=
EXTT23=
PLAYORDER=
